Coordinates
version=1
nRows=24
nColumns=24
inDegrees=yes

Units are S.I. units (second, meters, Newtons, ...)
Angles are in degrees.

endheader
time	pelvis_tilt	pelvis_list	pelvis_rotation	pelvis_tx	pelvis_ty	pelvis_tz	hip_flexion_r	hip_adduction_r	hip_rotation_r	knee_angle_r	ankle_angle_r	subtalar_angle_r	mtp_angle_r	hip_flexion_l	hip_adduction_l	hip_rotation_l	knee_angle_l	ankle_angle_l	subtalar_angle_l	mtp_angle_l	lumbar_extension	lumbar_bending	lumbar_rotation
      5.51000000	     -6.88577639	     -8.48035545	      5.11484547	     -0.83768112	     -0.01411172	      2.07112333	      2.14550230	     14.38374616	     -6.23506830	     -4.31187011	     10.97969408	     -3.02951304	    -55.54015496	     35.46861889	     -6.19871696	      3.01019133	    -46.04644855	     -3.78933232	     -5.53768699	     34.99684419	      4.66266948	      7.31393750	     -2.22151116
      5.52000000	     -6.97875844	     -8.16248526	      5.11102682	     -0.82653606	     -0.01499964	      2.07122932	      1.23050340	     14.14046896	     -6.24989358	     -3.89158310	     11.48574859	     -2.87187697	    -55.60715359	     35.93254449	     -5.81479306	      2.35749916	    -43.10667843	     -3.51657960	     -4.69027486	     34.58333464	      4.58539986	      6.96491604	     -2.01599072
      5.53000000	     -7.10044635	     -7.89221605	      5.14141468	     -0.81530811	     -0.01613783	      2.07118023	      0.36658183	     13.93387374	     -6.26986271	     -3.50723379	     12.01669193	     -2.72452739	    -55.63834379	     36.33609151	     -5.46935035	      1.67215819	    -40.02951338	     -3.32572770	     -3.65826161	     34.28689599	      4.55602027	      6.66970655	     -1.90229401
      5.54000000	     -7.14953040	     -7.62398632	      5.22229861	     -0.80403948	     -0.01733476	      2.07105351	     -0.54100341	     13.73343390	     -6.39664606	     -3.17962816	     12.53683913	     -2.56576624	    -55.68263996	     36.53888346	     -5.12767120	      0.91278362	    -36.79676736	     -3.24452896	     -2.50006238	     34.03893360	      4.44809110	      6.36821843	     -1.79321863
      5.55000000	     -7.19925136	     -7.38558584	      5.32220823	     -0.79273163	     -0.01866301	      2.07080406	     -1.40522304	     13.55544940	     -6.57202795	     -2.92906612	     13.07228466	     -2.35917006	    -55.70612736	     36.63336512	     -4.79176353	      0.15249186	    -33.46889170	     -3.25991782	     -1.25077502	     33.89609777	      4.34446229	      6.10714303	     -1.74776066
      5.56000000	     -7.21469383	     -7.14813196	      5.43915874	     -0.78135347	     -0.02003525	      2.07043551	     -2.25169743	     13.37186797	     -6.85011508	     -2.78695478	     13.63226591	     -2.06007523	    -55.72808852	     36.56745123	     -4.42262272	     -0.57658230	    -30.06822617	     -3.31302614	     -0.04575739	     33.78604768	      4.20904200	      5.85433032	     -1.72075552
      5.57000000	     -7.22395360	     -6.91692457	      5.56134434	     -0.76991054	     -0.02144860	      2.06996215	     -3.03034403	     13.18301459	     -7.25389496	     -2.79107472	     14.23368308	     -1.63484572	    -55.75194186	     36.38988831	     -4.01958233	     -1.23106706	    -26.65626922	     -3.34340435	      1.03074722	     33.60824471	      4.06881437	      5.61553788	     -1.71046810
      5.58000000	     -7.22687636	     -6.67955179	      5.67741058	     -0.75837898	     -0.02286564	      2.06936158	     -3.73794703	     12.96498335	     -7.79475235	     -2.96106779	     14.89893095	     -1.01850417	    -55.78792482	     36.10940876	     -3.57051827	     -1.76672134	    -23.28646879	     -3.29528499	      1.89960232	     33.20264409	      3.92969828	      5.38055079	     -1.70339305
      5.59000000	     -7.13652955	     -6.43110044	      5.92401415	     -0.74674922	     -0.02422082	      2.06844373	     -4.48186475	     12.71497889	     -8.61204515	     -3.25652597	     15.67299602	     -0.13081499	    -56.16253781	     35.67619318	     -2.99405065	     -1.99640198	    -20.05561191	     -3.08570285	      2.54927555	     31.83205645	      3.71053386	      5.14059034	     -1.88196333
      5.60000000	     -7.23392151	     -6.15929216	      5.93328034	     -0.73494527	     -0.02565068	      2.06760358	     -4.94085260	     12.36513716	     -9.25653616	     -3.79043942	     16.54277677	      0.87182205	    -56.94488438	     35.36582488	     -2.47586051	     -2.24253328	    -17.06322381	     -2.60063695	      3.07078222	     28.77469783	      3.69294532	      4.89790821	     -1.80144090
      5.61000000	     -7.28466890	     -5.88690774	      5.94495515	     -0.72296038	     -0.02697685	      2.06669885	     -5.41275821	     11.98238455	     -9.98275621	     -4.42846216	     17.26624122	      2.05691029	    -56.97598570	     34.96296775	     -1.97392857	     -2.47589397	    -14.25470571	     -2.26368955	      3.48326794	     26.63853135	      3.64216324	      4.65767162	     -1.81430733
      5.62000000	     -7.34690674	     -5.58839462	      5.91569877	     -0.71077891	     -0.02825620	      2.06577894	     -5.82762864	     11.52790446	    -10.64633173	     -5.20126785	     17.92098816	      3.29925139	    -56.68268767	     34.55643678	     -1.47033467	     -2.63796187	    -11.78511660	     -1.87752511	      3.88538729	     24.16597979	      3.61817984	      4.38324573	     -1.75827212
      5.63000000	     -7.43092615	     -5.31253931	      5.87471741	     -0.69837716	     -0.02955262	      2.06488247	     -6.16760439	     11.05569406	    -11.32041513	     -6.11058068	     18.51962803	      4.66260951	    -56.14405438	     34.21086677	     -1.02807607	     -2.91550222	     -9.72251761	     -1.60445311	      4.47826767	     23.11991597	      3.64231083	      4.11574237	     -1.72148616
      5.64000000	     -7.50509287	     -5.01525716	      5.75654980	     -0.68560756	     -0.03072842	      2.06399403	     -6.52539303	     10.51943278	    -11.83114236	     -7.06366739	     18.93301364	      6.03281205	    -55.37354982	     33.86869957	     -0.61363358	     -3.21930294	     -8.15176685	     -1.27415883	      4.99322226	     22.01200437	      3.69957541	      3.83017093	     -1.64163620
      5.65000000	     -7.62881185	     -4.76064512	      5.52438153	     -0.67265496	     -0.03189160	      2.06329913	     -6.77937052	     10.02298139	    -11.90997136	     -8.11321107	     18.88176017	      6.94099155	    -52.76632858	     33.69420634	     -0.32066862	     -3.53430770	     -7.30743469	     -0.55970653	      5.60532364	     19.47653880	      3.81931658	      3.57549919	     -1.44331683
      5.66000000	     -7.69951157	     -4.53827545	      5.34758676	     -0.65942530	     -0.03304457	      2.06248209	     -7.03391970	      9.50480182	    -12.20462280	     -9.29928940	     19.07252400	      8.24926227	    -52.01316544	     33.55844104	     -0.06320624	     -3.89575480	     -7.01318281	     -0.24982034	      6.04765816	     19.60637327	      3.92451951	      3.34698362	     -1.35232576
      5.67000000	     -7.76784180	     -4.32956571	      5.11527504	     -0.64576868	     -0.03416810	      2.06182020	     -7.28492187	      9.02818795	    -12.14828439	    -10.50221373	     18.55580407	      9.08536847	    -47.88288662	     33.47842022	      0.12079780	     -4.19543197	     -7.29348035	     -0.09739738	      6.13650883	     20.58811805	      4.08107360	      3.10992114	     -1.19887215
      5.68000000	     -7.83821360	     -4.15754652	      4.82738146	     -0.63192460	     -0.03528146	      2.06104703	     -7.42973517	      8.50521153	    -12.19714090	    -11.91710366	     18.51806894	     10.27565024	    -47.45339681	     33.47212322	      0.23497234	     -4.38867296	     -8.14370829	      0.03267319	      5.87149932	     20.74970599	      4.25818944	      2.92730149	     -0.96805735
      5.69000000	     -7.80197983	     -3.91997464	      4.72659488	     -0.61769022	     -0.03629047	      2.06009426	     -7.67642884	      7.94884503	    -12.34431288	    -13.35617962	     17.71671603	     11.26774962	    -42.55883930	     33.30812651	      0.50283463	     -4.19560229	     -9.19975725	     -0.46920698	      4.87348343	     21.57780408	      4.37547054	      2.63716305	     -0.99812664
      5.70000000	     -7.89856446	     -3.69189557	      4.61930451	     -0.60336203	     -0.03731927	      2.05895391	     -7.64839545	      7.32007262	    -12.63485769	    -15.02850391	     17.08032085	     12.44678144	    -39.56796596	     33.30420741	      0.77511482	     -3.92678688	    -10.52786154	     -1.02023104	      3.69379620	     20.08996206	      4.64150167	      2.36372347	     -0.99235383
      5.71000000	     -7.99529661	     -3.31157834	      4.60462176	     -0.58896197	     -0.03809412	      2.05759057	     -7.51688881	      6.47486548	    -13.14329687	    -16.89248249	     16.27964121	     13.74394036	    -36.47722950	     33.24589248	      1.25292392	     -3.54284504	    -11.83721595	     -1.89188814	      2.20267518	     17.01919538	      4.89605869	      1.92042121	     -1.06536592
      5.72000000	     -8.25108273	     -2.83127443	      4.68903192	     -0.57462511	     -0.03871168	      2.05612574	     -7.08197476	      5.47587781	    -13.81378864	    -18.95104938	     15.09913126	     14.96895119	    -32.77914311	     33.39981828	      1.87719057	     -3.16935558	    -13.16460424	     -2.93863314	      0.75666650	     13.22999831	      5.29542807	      1.32978773	     -1.23439083
      5.73000000	     -8.62063901	     -2.25078765	      4.82311754	     -0.56041152	     -0.03918578	      2.05469011	     -6.38552567	      4.32467746	    -14.56249738	    -21.19603542	     13.37509117	     16.03197625	    -27.98437701	     33.78591828	      2.58629758	     -2.99815772	    -14.60219740	     -4.03962307	     -0.31617892	     10.53378739	      5.77305781	      0.60865755	     -1.40282216
      5.74000000	     -9.06747571	     -1.66175323	      4.98587228	     -0.54624702	     -0.03954449	      2.05339849	     -5.48287212	      3.12518288	    -15.38658707	    -23.53905181	     10.88592933	     16.86577172	    -21.84591485	     34.37138901	      3.26473880	     -3.07298725	    -16.17449703	     -5.25212079	     -0.95785034	     10.41952994	      6.31082925	     -0.15712591	     -1.58157782
